<svg width="110" height="82" viewBox="0 0 110 82" fill="none" xmlns="http://www.w3.org/2000/svg">
<g clip-path="url(#clip0)">
<path d="M67.8475 82.0001H9.65981C6.53952 82.0001 4.00098 79.4617 4.00098 76.3416V38.1576C4.00098 35.0373 6.53952 32.499 9.65981 32.499H64.3399C67.4602 32.499 69.9987 35.0374 69.9987 38.1576V65.572C69.9987 66.76 69.0356 67.723 67.8477 67.723C66.6599 67.723 65.6966 66.76 65.6966 65.572V38.1576C65.6966 37.4095 65.0881 36.801 64.3397 36.801H9.65981C8.91143 36.801 8.30295 37.4098 8.30295 38.1576V76.3414C8.30295 77.0895 8.91143 77.698 9.65981 77.698H67.8477C69.0354 77.698 69.9987 78.661 69.9987 79.8491C69.9987 81.0371 69.0356 82.0001 67.8475 82.0001Z" fill="black"/>
<path d="M37.0001 10.1509L7.74219 31.5198C6.74304 32.2497 6.15234 33.4125 6.15234 34.6498V37.9705C6.15234 39.2077 6.74304 40.3708 7.74219 41.1005L37.0001 62.4695L66.258 41.1005C67.2571 40.3706 67.8478 39.2079 67.8478 37.9705V34.6498C67.8478 33.4126 67.2571 32.2496 66.258 31.5198L37.0001 10.1509Z" fill="white"/>
<path d="M36.9996 64.6205C36.5543 64.6205 36.1087 64.4825 35.7309 64.2067L6.47304 42.8375C4.92525 41.707 4.00098 39.8875 4.00098 37.9704V34.6496C4.00098 32.7327 4.92525 30.9132 6.47333 29.7826L35.7309 8.41376C36.4868 7.86208 37.5126 7.86208 38.2685 8.41376L67.5264 29.7827C69.0742 30.9132 69.9984 32.7327 69.9984 34.6498V37.9705C69.9984 39.8875 69.0742 41.707 67.5261 42.8376L38.2683 64.2066C37.8905 64.4825 37.4449 64.6205 36.9996 64.6205ZM36.9996 12.8144L9.01057 33.2571C8.5673 33.5806 8.30295 34.1013 8.30295 34.6501V37.9708C8.30295 38.5196 8.5673 39.0401 9.01043 39.3638L36.9998 59.8063L64.9888 39.3638C65.4321 39.0404 65.6965 38.5196 65.6965 37.9708V34.6501C65.6965 34.1013 65.4321 33.5808 64.989 33.2571L36.9996 12.8144Z" fill="black"/>
<path d="M32.0739 38.4611H6.67743C5.48967 38.4611 4.52637 37.498 4.52637 36.31C4.52637 35.1219 5.48952 34.1589 6.67743 34.1589H32.0737C33.2615 34.1589 34.2248 35.1219 34.2248 36.31C34.2246 37.498 33.2616 38.4611 32.0739 38.4611Z" fill="black"/>
<path d="M48.9599 38.4611H40.571C39.3832 38.4611 38.4199 37.498 38.4199 36.31C38.4199 35.1219 39.3831 34.1589 40.571 34.1589H48.9599C50.1476 34.1589 51.1109 35.1219 51.1109 36.31C51.1109 37.498 50.1476 38.4611 48.9599 38.4611Z" fill="black"/>
<path d="M65.8817 38.4611H57.4929C56.3051 38.4611 55.3418 37.498 55.3418 36.31C55.3418 35.1219 56.305 34.1589 57.4929 34.1589H65.8817C67.0695 34.1589 68.0328 35.1219 68.0328 36.31C68.0326 37.498 67.0698 38.4611 65.8817 38.4611Z" fill="black"/>
</g>
<g clip-path="url(#clip1)">
<path d="M89.9287 12.7183C87.9538 12.7183 85.9255 13.6651 84.6355 15.1894C84.4774 15.3761 84.2452 15.4838 84.0005 15.4838C84.0004 15.4838 84.0004 15.4838 84.0004 15.4838C83.7558 15.4838 83.5234 15.376 83.3654 15.1893C82.0761 13.6651 80.0474 12.7183 78.0714 12.7183C74.4784 12.7183 71.6641 15.533 71.6641 19.1263C71.6641 23.6617 75.654 27.4131 82.7062 33.6534C82.7184 33.6642 82.7303 33.6753 82.7418 33.6868L84.0004 34.9397L85.2587 33.6868C85.2703 33.6753 85.2822 33.6642 85.2944 33.6533C92.3468 27.414 96.3367 23.6631 96.3367 19.1263C96.3367 15.533 93.5219 12.7183 89.9287 12.7183ZM78.5672 15.6573C76.3366 15.6573 74.5894 17.4048 74.5894 19.6357C74.5894 20.0951 74.217 20.4675 73.7576 20.4675C73.2982 20.4675 72.9257 20.0951 72.9257 19.6357C72.9257 16.4719 75.4038 13.9936 78.5672 13.9936C79.0266 13.9936 79.399 14.3661 79.399 14.8254C79.399 15.2849 79.0266 15.6573 78.5672 15.6573Z" fill="white"/>
<path d="M89.9283 11.0544C87.7464 11.0544 85.5912 11.934 84.0001 13.4428C82.4095 11.9341 80.2537 11.0544 78.071 11.0544C73.5452 11.0544 70 14.6 70 19.1262C70 21.6592 71.0432 24.109 73.2829 26.8356C75.2368 29.2144 77.9571 31.6726 81.585 34.883L83.4132 36.703C83.5756 36.8645 83.7878 36.9453 84.0001 36.9453C84.2125 36.9453 84.4247 36.8645 84.5871 36.7029L86.4148 34.8829C90.0425 31.6734 92.7624 29.2156 94.7174 26.8356C96.9569 24.1091 98 21.6594 98 19.1262C98 14.6 94.4545 11.0544 89.9283 11.0544ZM85.2941 33.6532C85.2819 33.664 85.2699 33.6752 85.2583 33.6867L84 34.9396L82.7414 33.6867C82.7299 33.6752 82.718 33.664 82.7058 33.6533C75.6536 27.413 71.6637 23.6615 71.6637 19.1262C71.6637 15.5328 74.478 12.7182 78.071 12.7182C80.047 12.7182 82.0757 13.665 83.365 15.1892C83.523 15.376 83.7554 15.4837 84 15.4838C84 15.4838 84 15.4838 84.0001 15.4838C84.2448 15.4838 84.477 15.376 84.6351 15.1893C85.9251 13.665 87.9534 12.7182 89.9283 12.7182C93.5215 12.7182 96.3363 15.5328 96.3363 19.1262C96.3363 23.6629 92.3464 27.4139 85.2941 33.6532Z" fill="black"/>
<path d="M78.5672 13.9937C75.4038 13.9937 72.9258 16.472 72.9258 19.6357C72.9258 20.0952 73.2982 20.4676 73.7576 20.4676C74.217 20.4676 74.5895 20.0952 74.5895 19.6357C74.5895 17.4048 76.3367 15.6573 78.5672 15.6573C79.0266 15.6573 79.3991 15.2849 79.3991 14.8255C79.3991 14.3661 79.0266 13.9937 78.5672 13.9937Z" fill="black"/>
</g>
<g clip-path="url(#clip2)">
<path d="M105.964 1.35913C104.977 1.35913 103.963 1.83255 103.318 2.59468C103.239 2.68806 103.123 2.74192 103 2.74192C103 2.74192 103 2.74192 103 2.74192C102.878 2.74188 102.762 2.68802 102.683 2.59465C102.038 1.83255 101.024 1.35913 100.036 1.35913C98.2392 1.35913 96.832 2.76649 96.832 4.56315C96.832 6.83084 98.827 8.70656 102.353 11.8267C102.359 11.8321 102.365 11.8377 102.371 11.8434L103 12.4699L103.629 11.8434C103.635 11.8377 103.641 11.8321 103.647 11.8267C107.173 8.70701 109.168 6.83153 109.168 4.56315C109.168 2.76649 107.761 1.35913 105.964 1.35913ZM100.284 2.82864C99.1683 2.82864 98.2947 3.70238 98.2947 4.81783C98.2947 5.04756 98.1085 5.23375 97.8788 5.23375C97.6491 5.23375 97.4629 5.04756 97.4629 4.81783C97.4629 3.23596 98.7019 1.9968 100.284 1.9968C100.513 1.9968 100.7 2.18303 100.7 2.41272C100.7 2.64245 100.513 2.82864 100.284 2.82864Z" fill="white"/>
<path d="M105.964 0.527344C104.873 0.527344 103.796 0.967142 103 1.72151C102.205 0.967177 101.127 0.527344 100.035 0.527344C97.7726 0.527344 96 2.30012 96 4.5632C96 5.82974 96.5216 7.05462 97.6415 8.41793C98.6184 9.60731 99.9786 10.8364 101.793 12.4416L102.707 13.3516C102.788 13.4324 102.894 13.4728 103 13.4728C103.106 13.4728 103.212 13.4324 103.294 13.3516L104.207 12.4416C106.021 10.8368 107.381 9.60794 108.359 8.41793C109.478 7.05469 110 5.82981 110 4.5632C110 2.30012 108.227 0.527344 105.964 0.527344ZM103.647 11.8267C103.641 11.8321 103.635 11.8377 103.629 11.8435L103 12.4699L102.371 11.8435C102.365 11.8377 102.359 11.8321 102.353 11.8268C98.8268 8.70661 96.8318 6.83085 96.8318 4.5632C96.8318 2.76654 98.239 1.35921 100.036 1.35921C101.024 1.35921 102.038 1.83263 102.683 2.59473C102.762 2.68811 102.878 2.74197 103 2.742C103 2.742 103 2.742 103 2.742C103.122 2.742 103.238 2.68814 103.318 2.59477C103.963 1.83263 104.977 1.35921 105.964 1.35921C107.761 1.35921 109.168 2.76654 109.168 4.5632C109.168 6.83158 107.173 8.70706 103.647 11.8267Z" fill="black"/>
<path d="M100.284 1.99683C98.7019 1.99683 97.4629 3.23598 97.4629 4.81786C97.4629 5.04758 97.6491 5.23378 97.8788 5.23378C98.1085 5.23378 98.2947 5.04758 98.2947 4.81786C98.2947 3.7024 99.1683 2.82866 100.284 2.82866C100.513 2.82866 100.7 2.64247 100.7 2.41274C100.7 2.18305 100.513 1.99683 100.284 1.99683Z" fill="black"/>
</g>
<defs>
<clipPath id="clip0">
<rect width="74" height="74" fill="white" transform="translate(0 8)"/>
</clipPath>
<clipPath id="clip1">
<rect width="28" height="28" fill="white" transform="translate(70 10)"/>
</clipPath>
<clipPath id="clip2">
<rect width="14" height="14" fill="white" transform="translate(96)"/>
</clipPath>
</defs>
</svg>
