<svg width="100" height="100" viewBox="0 0 100 100" fill="none" xmlns="http://www.w3.org/2000/svg">
<circle cx="50" cy="50" r="50" fill="#FFE14C"/>
<path fill-rule="evenodd" clip-rule="evenodd" d="M39.0196 47.2478C39.0196 47.2478 42.2049 81.0462 43.1181 81.2032C44.0314 81.3606 61.1052 51.8803 61.1052 51.8803C61.1052 51.8803 58.3302 50.9291 58.0927 49.8316C58.0927 49.8316 57.3814 51.9051 54.8734 51.5266C52.3655 51.1476 50.4714 48.0213 49.1292 48.2166C47.7871 48.412 47.2669 50.8054 44.892 49.8881C42.517 48.9703 41.0764 47.0061 41.0764 47.0061C41.0764 47.0061 40.5866 47.0378 39.0196 47.2478" fill="white"/>
<path fill-rule="evenodd" clip-rule="evenodd" d="M39.2757 40.5498C39.2757 40.5498 35.0171 45.6795 36.975 46.4874C38.9328 47.2949 41.7144 44.4782 41.7144 44.4782C41.7144 44.4782 42.9392 47.4775 44.6078 47.3809C46.2764 47.2843 50.0028 44.6416 50.0028 44.6416C50.0028 44.6416 51.7411 48.9963 54.5343 48.2492C57.3275 47.5021 57.5313 45.8374 58.7928 46.0824C60.0542 46.3273 61.6661 50.8988 62.8989 48.9573C64.1317 47.0159 62.7089 43.9284 62.7089 43.9284C62.7089 43.9284 72.7189 40.5777 67.5605 24.4217C63.438 11.5095 47.7931 12.7513 41.3935 17.4386C37.2663 20.4615 33.7364 27.3768 39.2757 40.5498" fill="#FFE14C"/>
<path fill-rule="evenodd" clip-rule="evenodd" d="M62.1294 46.2603C62.4636 46.0246 62.8135 45.7998 63.1348 45.5558C63.4398 45.2965 63.7657 45.0727 64.0526 44.7882C64.3467 44.5146 64.6418 44.244 64.9073 43.9431C65.0425 43.795 65.1834 43.6524 65.3139 43.5014L65.6892 43.0326C66.6839 41.7785 67.4146 40.3319 67.9231 38.8177C68.4406 37.3015 68.6595 35.6958 68.728 34.0933C68.7934 32.4856 68.6079 30.8727 68.2951 29.2908C67.9754 27.708 67.4425 26.169 66.7593 24.7049C66.4063 23.9788 66.0258 23.2631 65.5683 22.5989C65.1278 21.9235 64.6304 21.2878 64.0909 20.6949C63.5589 20.0843 62.9579 19.5796 62.3037 19.0798C61.6683 18.6188 60.9705 18.2097 60.2542 17.8647C59.532 17.5282 58.7966 17.2245 58.0339 17.0045C57.2783 16.7672 56.5092 16.5818 55.7333 16.4379C54.1828 16.1408 52.5988 16.0217 51.0144 16.0771C49.4294 16.1311 47.8494 16.4295 46.3464 16.9424C44.8445 17.4585 43.4107 18.1775 42.1303 19.1124C41.4883 19.5766 40.8817 20.0909 40.3314 20.6603C39.767 21.2165 39.2647 21.8325 38.8013 22.476L38.4699 22.9707L38.3857 23.0937L38.324 23.2047L37.5759 24.5527C37.3727 24.9115 37.2647 25.282 37.1037 25.6468C36.9554 26.0131 36.7905 26.374 36.6999 26.7685L36.3865 27.9316L36.2015 29.1234C36.1191 29.5186 36.1305 29.9238 36.1102 30.3251C36.0982 30.7276 36.0812 31.1291 36.1354 31.5306C36.2455 33.1361 36.6124 34.7054 37.0719 36.2336C37.5362 37.7515 38.1419 39.2799 38.9203 40.6222L38.9362 40.6503C39.05 40.8452 39.0264 41.0827 38.8962 41.2515C38.6471 41.5732 38.3979 41.93 38.168 42.2824C37.9364 42.6368 37.7194 42.9997 37.5228 43.3686C37.3266 43.7371 37.1532 44.1141 37.0229 44.4915C36.8956 44.8655 36.8128 45.2539 36.8486 45.5618C36.8655 45.7161 36.91 45.8357 36.9839 45.9262C37.0018 45.9496 37.0261 45.9681 37.0458 45.9919L37.0527 46.0001L37.0566 46.0044C37.0404 45.9927 37.0939 46.0329 37.0209 45.9775L37.0232 45.9792L37.0271 45.9821L37.0608 46.0059L37.1278 46.0522C37.2132 46.1091 37.3206 46.1969 37.3716 46.2004C37.4789 46.2522 37.6511 46.3044 37.8225 46.3225C37.995 46.3437 38.1784 46.3369 38.3643 46.314C38.7383 46.2648 39.1219 46.1402 39.4924 45.9755C39.6775 45.8912 39.8614 45.8009 40.04 45.6992C40.217 45.6021 40.3986 45.4834 40.55 45.3761C40.7434 45.2374 41.0127 45.2825 41.1511 45.4771C41.1626 45.4933 41.1748 45.513 41.1831 45.5302C41.3612 45.8754 41.5996 46.2408 41.8486 46.5664C42.1005 46.8954 42.3803 47.1998 42.6836 47.4682C42.9866 47.7374 43.3291 47.9453 43.6833 48.0946C44.0326 48.2538 44.4203 48.304 44.7745 48.3002C44.8803 48.2934 45.0001 48.2934 45.0955 48.2804L45.3508 48.2284C45.5268 48.1779 45.714 48.1252 45.8877 48.0402C46.2416 47.8839 46.5784 47.6676 46.9144 47.4182C47.2555 47.1707 47.5797 46.8869 48.0073 46.6151C48.1261 46.5505 48.2218 46.4796 48.3652 46.4239L48.5694 46.3396L48.8131 46.2825C48.9715 46.2472 49.177 46.2535 49.3528 46.2845C49.4428 46.3074 49.5322 46.3353 49.6204 46.3656L49.653 46.3772L49.6613 46.3803C49.6199 46.3579 49.7275 46.4138 49.7181 46.409L49.7266 46.4143L49.7629 46.4348L49.8341 46.4757C49.9122 46.5108 50.065 46.6275 50.1911 46.7324C50.3179 46.8394 50.386 46.9239 50.4855 47.0227C50.653 47.2118 50.7983 47.402 50.9317 47.5901C51.1952 47.9649 51.4332 48.3185 51.6787 48.6461C52.1683 49.2946 52.7191 49.8171 53.4074 49.9671L53.4708 49.9854L53.5022 49.9947L53.5179 49.9992C53.5267 50.0009 53.4574 49.9899 53.4891 49.9951L53.4941 49.9957L53.5042 49.9973L53.6668 50.0196L53.9924 50.0646C54.1702 50.0559 54.3301 50.0861 54.5247 50.0571C54.9025 50.0382 55.2735 49.9368 55.6311 49.7971C55.9882 49.6552 56.3323 49.4612 56.6491 49.2244C56.961 48.9947 57.2701 48.6941 57.4948 48.4286L57.5247 48.3934C57.7101 48.1737 58.0388 48.1475 58.2579 48.3338C58.2987 48.369 58.3341 48.4109 58.3614 48.4537C58.4526 48.5991 58.5788 48.7686 58.6968 48.9218C58.8189 49.0765 58.9471 49.2263 59.0796 49.3722C59.2146 49.5147 59.352 49.6534 59.4974 49.7816C59.643 49.907 59.7906 50.0342 59.9479 50.1365C60.1014 50.2496 60.264 50.3352 60.4261 50.4204C60.5924 50.4862 60.758 50.5684 60.928 50.5939C61.098 50.6472 61.2671 50.6376 61.4373 50.6512C61.6032 50.6205 61.7762 50.6211 61.9361 50.5466L62.0596 50.5049L62.1218 50.4845L62.1258 50.4828C62.0343 50.5348 62.1017 50.4967 62.0815 50.5076L62.0837 50.5065L62.0925 50.5014L62.109 50.4908L62.1426 50.4699C62.2244 50.4154 62.3401 50.3583 62.3953 50.3074C62.4266 50.258 62.4658 50.2258 62.5096 50.1797C62.5447 50.1123 62.584 50.0474 62.6246 49.9805L62.6995 49.7429C62.7157 49.6571 62.724 49.5673 62.7386 49.4785C62.7495 49.296 62.7535 49.1062 62.7286 48.9115C62.7165 48.7187 62.6738 48.5215 62.6348 48.3263C62.5921 48.1295 62.5372 47.934 62.4787 47.7392C62.3591 47.351 62.2119 46.9578 62.0445 46.5942L62.0418 46.588C61.9869 46.4699 62.027 46.3325 62.1294 46.2603V46.2603Z" fill="white"/>
<path fill-rule="evenodd" clip-rule="evenodd" d="M63.1776 45.3102C63.3498 45.6201 63.5114 45.9259 63.6481 46.2531C63.7271 46.4531 63.8026 46.6556 63.8668 46.8644C63.9278 47.074 63.9921 47.2842 64.0267 47.5073C64.0721 47.7258 64.0905 47.9562 64.095 48.1908C64.0886 48.3103 64.0857 48.4298 64.0722 48.5508L63.9897 48.919C63.9388 49.0396 63.8827 49.1607 63.8241 49.2797C63.7442 49.3992 63.6389 49.5178 63.5369 49.628C63.4414 49.7171 63.3672 49.758 63.2809 49.8247L63.2495 49.8472L63.2336 49.8589L63.2256 49.8641L63.1775 49.8938L63.1719 49.8961L63.0892 49.9324L62.9214 50.0039C62.7042 50.1148 62.4561 50.1475 62.2148 50.1971C61.9711 50.2039 61.7207 50.2207 61.4847 50.168C61.2402 50.1412 61.0194 50.0536 60.7957 49.9784C60.5819 49.8848 60.37 49.787 60.1777 49.6646C59.9786 49.5504 59.7985 49.4153 59.6202 49.2792C59.4431 49.142 59.2766 48.9941 59.1147 48.843C58.9557 48.6891 58.8013 48.5307 58.6543 48.3667C58.5063 48.1965 58.3702 48.0396 58.2255 47.84L59.0742 47.8467C58.7708 48.2686 58.4531 48.5792 58.0858 48.8874C57.7218 49.1873 57.3166 49.444 56.8787 49.6421C56.4411 49.838 55.9709 49.9873 55.4848 50.0366C55.251 50.0807 54.9759 50.0637 54.7219 50.0705L54.4015 50.04L54.2418 50.0247L54.1883 50.0181L54.1647 50.013L54.1175 50.0027L54.0231 49.9822C53.5173 49.8875 53.0316 49.6564 52.6325 49.3564C52.2286 49.0586 51.8947 48.7058 51.6018 48.3499C51.3069 47.9955 51.0613 47.6243 50.8147 47.2931C50.6917 47.1289 50.5701 46.9752 50.452 46.8352C50.396 46.7808 50.3246 46.6964 50.2835 46.6641C50.2402 46.632 50.2329 46.5954 50.1146 46.5352L50.0448 46.4946L50.0101 46.4743L50.0016 46.4687C49.989 46.4626 50.0924 46.5147 50.0477 46.4925L50.0464 46.4927L50.0401 46.4923C50.0235 46.4902 50.0093 46.4856 49.9951 46.476C49.9813 46.4606 49.9622 46.4762 49.9465 46.4699C49.9302 46.4669 49.9135 46.4584 49.8859 46.4694C49.799 46.467 49.6416 46.5453 49.4907 46.6256C49.1754 46.806 48.83 47.0799 48.4602 47.3291C48.089 47.5816 47.6825 47.8232 47.2354 47.9974C47.014 48.092 46.7807 48.1508 46.5385 48.2064L46.1549 48.2665C46.0354 48.2796 45.9373 48.2769 45.8275 48.2837C45.3211 48.2886 44.8318 48.2046 44.3888 48.0034C43.9471 47.8121 43.5469 47.5521 43.1896 47.2574C42.8341 46.9581 42.5171 46.6258 42.232 46.271C41.9459 45.9114 41.6955 45.5518 41.4654 45.1291L42.0884 45.2666C41.8927 45.415 41.7131 45.5337 41.5185 45.6547C41.3275 45.7753 41.1284 45.8845 40.926 45.9878C40.5179 46.19 40.0814 46.3584 39.6038 46.4434C39.3647 46.4834 39.1169 46.5044 38.8603 46.4854C38.6048 46.4641 38.352 46.4178 38.0687 46.2881C37.9117 46.2277 37.8516 46.1719 37.754 46.1144L37.6862 46.0718L37.6523 46.0501L37.6067 46.0177L37.5957 46.0084L37.5744 45.9887C37.5172 45.9358 37.4576 45.8853 37.4071 45.8265C37.1959 45.59 37.0818 45.2881 37.0393 45.0155C36.9551 44.4612 37.0594 43.9802 37.182 43.53C37.3132 43.0821 37.4838 42.6618 37.6739 42.2564C37.8646 41.8518 38.0733 41.4605 38.2962 41.0792C38.5203 40.6959 38.7496 40.3307 39.0094 39.9546L39 40.5732C38.5212 39.8467 38.1354 39.1306 37.7772 38.3735C37.5958 37.9994 37.4453 37.6114 37.2789 37.2302C37.1348 36.8399 36.9971 36.4472 36.8682 36.0516C36.7539 35.6515 36.6357 35.2517 36.5424 34.8462L36.309 33.6185L36.1864 32.3758C36.1414 31.9634 36.1612 31.5445 36.1455 31.131C36.1473 30.9236 36.1284 30.7175 36.1414 30.5105L36.1744 29.8904C36.1947 29.4773 36.1918 29.063 36.257 28.6532L36.4095 27.4216L36.6857 26.2112C36.7546 25.8028 36.9021 25.4088 37.0359 25.0109C37.178 24.6209 37.2869 24.1979 37.4583 23.8331L37.9677 22.7339L38.0945 22.4591C38.1216 22.4029 38.1237 22.3911 38.1712 22.2981L38.2497 22.163L38.567 21.6237C39.4458 20.2053 40.5852 18.9469 41.9024 17.931C43.2108 16.9002 44.6838 16.0973 46.2313 15.506C47.7826 14.926 49.4035 14.5373 51.0523 14.3508C51.8767 14.2466 52.7091 14.2345 53.5412 14.2435C54.3718 14.2971 55.2047 14.3621 56.0215 14.5371C57.6611 14.8497 59.2307 15.4869 60.6722 16.3066C61.3911 16.726 62.0696 17.1925 62.7351 17.7085C63.3608 18.2122 64.0076 18.7631 64.5613 19.37C65.7036 20.5686 66.6054 21.9644 67.384 23.4113C68.1369 24.8743 68.7415 26.4179 69.1411 28.0192C69.5436 29.6176 69.7705 31.2693 69.7505 32.9263C69.7418 34.5814 69.5079 36.2453 68.9925 37.8251C68.4883 39.4056 67.724 40.9128 66.683 42.2017L66.2922 42.6837C66.1563 42.8395 66.0107 42.9858 65.8704 43.137C65.5973 43.4478 65.281 43.7139 64.9754 43.9893C64.677 44.2709 64.3258 44.5032 64.0039 44.7608C63.7322 44.9566 63.4542 45.1301 63.1776 45.3102ZM62.7125 45.022C63.0343 44.7833 63.3716 44.5549 63.6807 44.3083C63.9734 44.047 64.2873 43.8202 64.5618 43.5345C64.8435 43.2593 65.1263 42.9872 65.3794 42.6858C65.5084 42.5374 65.6432 42.3943 65.7675 42.2431L66.1243 41.7744C67.0698 40.5209 67.7526 39.0839 68.2164 37.5851C68.6889 36.0842 68.8672 34.5016 68.8982 32.9255C68.9262 31.3444 68.7085 29.7634 68.3669 28.2156C68.0185 26.667 67.4625 25.1661 66.7609 23.7419C66.3991 23.0359 66.0107 22.3408 65.548 21.6978C65.1017 21.0435 64.6006 20.4295 64.0593 19.8584C63.5248 19.2696 62.9253 18.7866 62.2737 18.3093C61.6415 17.8699 60.9494 17.4827 60.2405 17.1589C59.5262 16.8437 58.7995 16.5609 58.0481 16.361C57.3032 16.1439 56.5463 15.9781 55.7836 15.8532C54.2593 15.5943 52.7063 15.511 51.1567 15.5992C49.6066 15.6861 48.0668 16.0129 46.6072 16.549C45.1488 17.0881 43.7615 17.8251 42.5292 18.7712C41.9112 19.241 41.3291 19.7593 40.8032 20.3306C40.2633 20.8891 39.7854 21.5051 39.3463 22.1474L39.033 22.6405L38.9534 22.7632L38.8954 22.8736L38.1934 24.2141C38.0026 24.571 37.9052 24.9374 37.7557 25.2993C37.6188 25.6624 37.4655 26.0206 37.3857 26.4101L37.105 27.5597L36.9506 28.7348C36.8789 29.1249 36.899 29.5228 36.8882 29.9175C36.8855 30.3134 36.8778 30.7083 36.9398 31.1016C37.0836 32.6769 37.4779 34.2112 37.9619 35.7031C38.4504 37.1848 39.0775 38.6737 39.8695 39.9762L39.8856 40.0035C40.0015 40.1926 39.9837 40.4264 39.86 40.595C39.6234 40.9165 39.3875 41.2725 39.1703 41.6236C38.9516 41.9768 38.7473 42.338 38.5632 42.7047C38.3794 43.071 38.2181 43.4451 38.0991 43.8187C37.9828 44.189 37.9105 44.5724 37.9525 44.8742C37.9724 45.0255 38.0187 45.1421 38.0931 45.2294C38.1111 45.252 38.1353 45.2697 38.1552 45.2926L38.1621 45.3005L38.166 45.3047C38.1499 45.2935 38.2031 45.332 38.1304 45.2791L38.1327 45.2807L38.1366 45.2835L38.1701 45.3061L38.2367 45.3501C38.3216 45.4042 38.4286 45.4882 38.4787 45.4906C38.5849 45.5393 38.7546 45.5869 38.9228 45.601C39.0921 45.6182 39.2714 45.6076 39.4529 45.581C39.8178 45.5247 40.1904 45.3942 40.5494 45.2245C40.7288 45.1376 40.9067 45.045 41.0792 44.9413C41.2503 44.8421 41.4253 44.7215 41.5711 44.6129C41.7574 44.4725 42.022 44.511 42.1618 44.6994C42.1734 44.715 42.1857 44.7341 42.1943 44.7508C42.3763 45.0862 42.6179 45.4402 42.8688 45.7548C43.1228 46.0728 43.4035 46.366 43.7064 46.6232C44.009 46.8813 44.3489 47.0783 44.6989 47.2175C45.0444 47.3665 45.425 47.4075 45.7716 47.3963C45.8749 47.3873 45.9922 47.3848 46.0853 47.37L46.334 47.3134C46.5051 47.26 46.6872 47.2043 46.8553 47.1171C47.1982 46.9559 47.523 46.7362 47.8462 46.4839C48.1746 46.2335 48.4856 45.9477 48.898 45.6715C49.0128 45.6055 49.1049 45.5338 49.244 45.476L49.442 45.3889L49.6792 45.3275C49.8334 45.2894 50.0347 45.2913 50.2076 45.318C50.2961 45.3386 50.3843 45.3641 50.4713 45.392L50.5034 45.4027L50.5116 45.4055C50.4706 45.3844 50.5771 45.4371 50.5678 45.4325L50.5763 45.4376L50.6123 45.4569L50.6829 45.4956C50.7601 45.5284 50.9122 45.6399 51.0381 45.7402C51.1646 45.8427 51.2331 45.9242 51.3327 46.0192C51.5009 46.2015 51.6474 46.3853 51.7821 46.5673C52.0484 46.93 52.2894 47.2724 52.537 47.5891C53.0307 48.2159 53.5816 48.7176 54.2586 48.8504L54.321 48.8669L54.352 48.8754L54.3675 48.8795C54.3761 48.881 54.3081 48.8716 54.3392 48.8761L54.3441 48.8766L54.354 48.878L54.5137 48.8964L54.8334 48.9337C55.0072 48.9213 55.1644 48.9476 55.3542 48.915C55.7235 48.8884 56.0844 48.7808 56.4313 48.6359C56.7776 48.4888 57.1101 48.2909 57.4149 48.0514C57.715 47.8191 58.0108 47.5171 58.2247 47.2515L58.2533 47.2162C58.4298 46.9964 58.751 46.9636 58.9695 47.142C59.0103 47.1757 59.0459 47.2161 59.0736 47.2577C59.166 47.3986 59.2934 47.5624 59.4123 47.7104C59.5353 47.8599 59.6642 48.0044 59.7971 48.1449C59.9324 48.2821 60.07 48.4154 60.2152 48.5383C60.3606 48.6584 60.5079 48.7802 60.6641 48.8775C60.8169 48.9853 60.978 49.066 61.1385 49.1462C61.3028 49.2073 61.4667 49.2846 61.6336 49.306C61.8013 49.3547 61.9666 49.3417 62.1334 49.3515C62.2952 49.3177 62.4645 49.3147 62.6193 49.238L62.7392 49.1945L62.7996 49.1731L62.8035 49.1714C62.7151 49.2244 62.7803 49.1855 62.7608 49.1966L62.7629 49.1955L62.7713 49.1903L62.7873 49.1795L62.8197 49.1583C62.8986 49.103 63.0105 49.0445 63.0634 48.9932C63.0929 48.944 63.1306 48.9116 63.1724 48.8654C63.2052 48.7984 63.2423 48.7337 63.2805 48.6672L63.3485 48.4321C63.3624 48.3474 63.3685 48.259 63.3809 48.1714C63.3874 47.9918 63.3871 47.8053 63.3583 47.6145C63.3422 47.4253 63.2959 47.2324 63.2534 47.0414C63.2072 46.849 63.1491 46.658 63.0874 46.4678C62.9617 46.0889 62.8088 45.7057 62.6368 45.3519L62.634 45.3459C62.5777 45.231 62.6138 45.0951 62.7125 45.022V45.022Z" fill="#9F891D"/>
<path fill-rule="evenodd" clip-rule="evenodd" d="M38.3607 46.1322C38.3607 46.1322 38.4011 46.4179 38.4771 46.9536C38.5526 47.4888 38.6681 48.2747 38.7911 49.2762C38.9245 50.277 39.0681 51.4938 39.2283 52.8904C39.3992 54.286 39.5525 55.8645 39.7187 57.5866C39.8794 59.3091 40.023 61.1789 40.2556 63.1476C40.3698 64.1318 40.4697 65.1458 40.6531 66.1717C40.8377 67.1975 41.0602 68.2424 41.2448 69.3085C41.6318 71.439 41.6685 73.6836 41.9641 75.9315C42.0992 77.0565 42.2397 78.1903 42.3951 79.3227C42.4721 79.8885 42.5591 80.4545 42.6469 81.0132C42.6892 81.292 42.7365 81.5722 42.7927 81.8277C42.8065 81.8949 42.8216 81.9469 42.8363 82.0003C42.8442 82.0327 42.8455 82.0249 42.8479 82.0407C42.8593 82.0697 42.831 82.0016 42.7837 81.9617C42.7064 81.9187 42.8615 81.9777 42.5872 81.863C42.5693 81.8595 42.6638 81.8813 42.5537 81.856C42.4806 81.8347 42.342 81.8784 42.3362 81.8861C42.3256 81.8904 42.316 81.8956 42.3064 81.9017C42.2918 81.9127 42.3021 81.9043 42.2996 81.9081C42.3099 81.8997 42.3251 81.8895 42.3451 81.8704C42.3827 81.8369 42.4276 81.7906 42.4707 81.7448C42.8253 81.3508 43.1734 80.8849 43.5054 80.4274C43.8441 79.9691 44.1623 79.4942 44.4726 79.0157C44.7881 78.5401 45.0918 78.058 45.3645 77.5568C45.6274 77.0503 45.8899 76.5448 46.1512 76.0416C46.678 75.0382 47.279 74.0926 47.88 73.1616C48.4763 72.2273 49.0648 71.3044 49.6434 70.3968C50.7976 68.5777 51.8996 66.8099 52.9019 65.108C53.907 63.4073 54.6738 61.6882 55.5703 60.2158C56.4695 58.7449 57.294 57.3968 58.0249 56.2015C58.7731 55.017 59.425 53.984 59.9616 53.1335C61.0527 51.4423 61.6984 50.4892 61.6984 50.4887C61.7772 50.3721 61.9352 50.3422 62.0505 50.4225C62.1564 50.4956 62.1898 50.636 62.1343 50.7488C62.1342 50.7484 61.6244 51.7836 60.6842 53.5665C60.2044 54.4512 59.6324 55.5329 58.9524 56.7597C58.2615 57.9798 57.4817 59.3561 56.631 60.8576C55.7741 62.3554 54.637 63.8508 53.6198 65.5459C52.6002 67.2388 51.5636 69.048 50.4896 70.9196C49.9502 71.8543 49.4019 72.8048 48.8471 73.7666C48.2924 74.7293 47.718 75.696 47.0498 76.6145C46.7109 77.0701 46.3703 77.5272 46.0285 77.9863C45.6928 78.4486 45.3832 78.9302 45.0774 79.4157C44.4373 80.3789 43.8868 81.3656 43.1604 82.3422C43.1093 82.4049 43.06 82.467 42.9966 82.5347C42.9671 82.5672 42.9289 82.6049 42.8848 82.6434C42.8529 82.6674 42.8363 82.6835 42.7903 82.7121L42.7148 82.7536C42.6928 82.7701 42.5359 82.8154 42.4458 82.7993L42.3605 82.7861C42.0741 82.658 42.2188 82.7026 42.1293 82.6462C42.0603 82.578 42.0068 82.4832 42.0078 82.4768C41.9837 82.4258 41.9503 82.3548 41.9388 82.3172C41.9099 82.2327 41.8814 82.1482 41.8627 82.0749C41.7777 81.771 41.7142 81.485 41.6546 81.1968C41.5368 80.6222 41.4481 80.0499 41.3559 79.4796C41.1752 78.3388 41.0141 77.2027 40.8591 76.0758C40.5769 73.8192 40.0863 71.6251 39.9752 69.4579C39.9106 68.3759 39.8926 67.3068 39.8446 66.2643C39.7944 65.222 39.6694 64.211 39.5654 63.2247C39.3637 61.2522 39.1035 59.3941 38.896 57.676C38.6935 55.9572 38.5132 54.3809 38.3912 52.9799C38.2575 51.5802 38.1479 50.3589 38.0742 49.3514C37.9897 48.3452 37.9428 47.5526 37.9095 47.0123C37.8757 46.4721 37.8576 46.1835 37.8576 46.1835C37.8486 46.0429 37.9546 45.9213 38.094 45.9123C38.2263 45.9042 38.3419 46.0013 38.3607 46.1322" fill="white"/>
<path d="M38.3607 46.1322C38.3607 46.1322 38.4011 46.4179 38.4771 46.9536C38.5526 47.4888 38.6681 48.2747 38.7911 49.2762C38.9245 50.277 39.0681 51.4938 39.2283 52.8904C39.3992 54.286 39.5525 55.8645 39.7187 57.5866C39.8794 59.3091 40.023 61.1789 40.2556 63.1476C40.3698 64.1318 40.4697 65.1458 40.6531 66.1717C40.8377 67.1975 41.0602 68.2424 41.2448 69.3085C41.6318 71.439 41.6685 73.6836 41.9641 75.9315C42.0992 77.0565 42.2397 78.1903 42.3951 79.3227C42.4721 79.8885 42.5591 80.4545 42.6469 81.0132C42.6892 81.292 42.7365 81.5722 42.7927 81.8277C42.8065 81.8949 42.8216 81.9469 42.8363 82.0003C42.8442 82.0327 42.8455 82.0249 42.8479 82.0407C42.8593 82.0697 42.831 82.0016 42.7837 81.9617C42.7064 81.9187 42.8615 81.9777 42.5872 81.863C42.5693 81.8595 42.6638 81.8813 42.5537 81.856C42.4806 81.8347 42.342 81.8784 42.3362 81.8861C42.3256 81.8904 42.316 81.8956 42.3064 81.9017C42.2918 81.9127 42.3021 81.9043 42.2996 81.9081C42.3099 81.8997 42.3251 81.8895 42.3451 81.8704C42.3827 81.8369 42.4276 81.7906 42.4707 81.7448C42.8253 81.3508 43.1734 80.8849 43.5054 80.4274C43.8441 79.9691 44.1623 79.4942 44.4726 79.0157C44.7881 78.5401 45.0918 78.058 45.3645 77.5568C45.6274 77.0503 45.8899 76.5448 46.1512 76.0416C46.678 75.0382 47.279 74.0926 47.88 73.1616C48.4763 72.2273 49.0648 71.3044 49.6434 70.3968C50.7976 68.5777 51.8996 66.8099 52.9019 65.108C53.907 63.4073 54.6738 61.6882 55.5703 60.2158C56.4695 58.7449 57.294 57.3968 58.0249 56.2015C58.7731 55.017 59.425 53.984 59.9616 53.1335C61.0527 51.4423 61.6984 50.4892 61.6984 50.4887C61.7772 50.3721 61.9352 50.3422 62.0505 50.4225C62.1564 50.4956 62.1898 50.636 62.1343 50.7488C62.1342 50.7484 61.6244 51.7836 60.6842 53.5665C60.2044 54.4512 59.6324 55.5329 58.9524 56.7597C58.2615 57.9798 57.4817 59.3561 56.631 60.8576C55.7741 62.3554 54.637 63.8508 53.6198 65.5459C52.6002 67.2388 51.5636 69.048 50.4896 70.9196C49.9502 71.8543 49.4019 72.8048 48.8471 73.7666C48.2924 74.7293 47.718 75.696 47.0498 76.6145C46.7109 77.0701 46.3703 77.5272 46.0285 77.9863C45.6928 78.4486 45.3832 78.9302 45.0774 79.4157C44.4373 80.3789 43.8868 81.3656 43.1604 82.3422C43.1093 82.4049 43.06 82.467 42.9966 82.5347C42.9671 82.5672 42.9289 82.6049 42.8848 82.6434C42.8529 82.6674 42.8363 82.6835 42.7903 82.7121L42.7148 82.7536C42.6928 82.7701 42.5359 82.8154 42.4458 82.7993L42.3605 82.7861C42.0741 82.658 42.2188 82.7026 42.1293 82.6462C42.0603 82.578 42.0068 82.4832 42.0078 82.4768C41.9837 82.4258 41.9503 82.3548 41.9388 82.3172C41.9099 82.2327 41.8814 82.1482 41.8627 82.0749C41.7777 81.771 41.7142 81.485 41.6546 81.1968C41.5368 80.6222 41.4481 80.0499 41.3559 79.4796C41.1752 78.3388 41.0141 77.2027 40.8591 76.0758C40.5769 73.8192 40.0863 71.6251 39.9752 69.4579C39.9106 68.3759 39.8926 67.3068 39.8446 66.2643C39.7944 65.222 39.6694 64.211 39.5654 63.2247C39.3637 61.2522 39.1035 59.3941 38.896 57.676C38.6935 55.9572 38.5132 54.3809 38.3912 52.9799C38.2575 51.5802 38.1479 50.3589 38.0742 49.3514C37.9897 48.3452 37.9428 47.5526 37.9095 47.0123C37.8757 46.4721 37.8576 46.1835 37.8576 46.1835C37.8486 46.0429 37.9546 45.9213 38.094 45.9123C38.2263 45.9042 38.3419 46.0013 38.3607 46.1322" stroke="#9F891D" stroke-width="0.53"/>
<path fill-rule="evenodd" clip-rule="evenodd" d="M53.4032 44.4788C52.7698 43.7785 52.3248 43.0587 51.3722 42.8145C50.7996 42.6677 50.1576 42.8264 49.5973 42.9476C49.2006 43.0342 47.9 43.9706 47.8539 43.378C47.6913 41.2516 45.5008 40.57 43.9361 42.1325C43.9087 42.1594 43.9337 42.1992 43.9695 42.1938C44.4082 42.1216 44.8299 42.006 45.2619 41.9006C46.8946 41.5046 47.3764 42.9052 47.4969 44.1744C47.51 44.3165 47.6662 44.4734 47.819 44.3699C48.922 43.6252 50.7882 42.5713 52.0588 43.6615C52.4674 44.0119 52.7172 44.4425 53.1638 44.7644C53.3438 44.8937 53.5414 44.6323 53.4032 44.4788" fill="#9F891D"/>
<path fill-rule="evenodd" clip-rule="evenodd" d="M61.0288 44.3433C60.7277 43.6488 59.768 43.7292 59.1942 44.0038C58.5443 44.3149 58.2153 44.9222 57.9569 45.54C57.9426 45.5724 57.9852 45.6022 58.0143 45.5859C58.477 45.331 58.843 44.987 59.2856 44.6972C59.8443 44.332 60.3331 44.7006 60.9141 44.5978C61.0365 44.577 61.0704 44.4413 61.0288 44.3433" fill="#9F891D"/>
<path fill-rule="evenodd" clip-rule="evenodd" d="M44.3343 69.6349C43.6525 68.1991 43.2847 66.7388 42.8217 65.2329C42.8154 65.2118 42.7816 65.2062 42.776 65.2317C42.5366 66.37 43.0404 67.6426 43.4511 68.6832C43.936 69.9116 44.5204 71.7936 45.5161 72.6871C45.6102 72.7722 45.7536 72.7019 45.7305 72.5686C45.5546 71.5628 44.7689 70.5511 44.3343 69.6349" fill="#9F891D"/>
<path fill-rule="evenodd" clip-rule="evenodd" d="M48.0599 72.0678C46.9445 69.3407 46.1364 66.5018 44.9629 63.7954C43.7186 60.9271 43.0263 57.8482 41.3338 55.1957C41.2037 54.9927 40.9257 55.152 41.0146 55.3737C42.1808 58.2778 43.1745 61.2435 44.3167 64.1561C45.383 66.8759 46.1949 69.7617 47.5811 72.3351C47.7539 72.6568 48.1929 72.3949 48.0599 72.0678" fill="#9F891D"/>
<path fill-rule="evenodd" clip-rule="evenodd" d="M49.9282 68.2373C49.4702 65.2107 48.1708 62.2937 46.9798 59.5054C45.5485 56.1524 44.2656 52.7347 42.8395 49.386C42.7778 49.2409 42.5727 49.339 42.5989 49.4809C43.1453 52.4803 44.5353 55.3368 45.7255 58.1104C47.1686 61.4751 48.3425 64.8746 49.5139 68.3399C49.604 68.6056 49.9707 68.5185 49.9282 68.2373" fill="#9F891D"/>
<path fill-rule="evenodd" clip-rule="evenodd" d="M52.125 63.3146C51.1617 58.5373 49.1692 53.3799 46.6842 49.2292C46.6537 49.1771 46.5583 49.2062 46.5824 49.2702C48.3251 53.9906 50.1072 58.6437 51.7274 63.4147C51.8122 63.6666 52.1804 63.5867 52.125 63.3146" fill="#9F891D"/>
<path fill-rule="evenodd" clip-rule="evenodd" d="M54.7394 61.069C53.6229 57.1945 52.1318 52.9286 50.1909 49.3975C50.1864 49.3896 50.1733 49.3941 50.1761 49.4026C51.5148 53.2682 52.3449 57.6535 54.1922 61.2847C54.3456 61.5872 54.8351 61.4032 54.7394 61.069" fill="#9F891D"/>
<path fill-rule="evenodd" clip-rule="evenodd" d="M57.8256 57.4098C56.5993 55.2971 56.0533 52.8864 54.3947 51.0174C54.3603 50.978 54.3079 51.0171 54.313 51.0621C54.4879 52.4586 55.5722 53.6142 56.016 54.9383C56.3396 55.9047 56.6963 57.0952 57.6639 57.5646C57.7593 57.611 57.8906 57.5205 57.8256 57.4098" fill="#9F891D"/>
<path fill-rule="evenodd" clip-rule="evenodd" d="M54.6163 51.4505C50.1156 55.0328 44.8212 58.856 41.8688 63.9093C41.8517 63.9395 41.8843 63.9796 41.9162 63.9599C44.2086 62.5685 45.6808 59.952 47.6006 58.1021C49.9138 55.8722 52.3327 53.7008 54.8193 51.6669C54.9696 51.5445 54.7651 51.3323 54.6163 51.4505" fill="#9F891D"/>
<path fill-rule="evenodd" clip-rule="evenodd" d="M57.6 53.4764C55.0632 55.9258 52.7051 58.3495 50.5383 61.1391C48.6152 63.6166 46.7246 67.643 43.9608 69.2207C43.9569 69.2232 43.9596 69.2299 43.9636 69.2287C46.0853 68.7281 47.4234 65.8103 48.6364 64.2225C51.4884 60.4883 54.3776 56.8996 57.6605 53.5408C57.701 53.5004 57.641 53.4365 57.6 53.4764" fill="#9F891D"/>
<path fill-rule="evenodd" clip-rule="evenodd" d="M50.6857 50.1107C49.2505 51.7129 47.4666 52.9305 45.9181 54.415C44.3615 55.9078 42.7705 57.425 41.429 59.117C41.4025 59.1509 41.454 59.1876 41.4843 59.1629C43.1237 57.7602 44.6685 56.2328 46.2042 54.7196C47.7342 53.2099 49.5355 52.0225 50.9672 50.4079C51.1406 50.2128 50.8626 49.9136 50.6857 50.1107" fill="#9F891D"/>
</svg>
